<mxfile host="Electron" modified="2024-01-25T12:18:50.001Z" agent="Mozilla/5.0 (Windows NT 10.0; Win64; x64) AppleWebKit/537.36 (KHTML, like Gecko) draw.io/22.0.0 Chrome/114.0.5735.289 Electron/25.8.3 Safari/537.36" etag="y1B7DlAxAEgGtbNnnOlS" version="22.0.0" type="device">
  <diagram name="Page-1" id="-Jxl4brxkRP6b6_OW8Jz">
    <mxGraphModel dx="1434" dy="2005" grid="1" gridSize="10" guides="1" tooltips="1" connect="1" arrows="1" fold="1" page="1" pageScale="1" pageWidth="827" pageHeight="1169" math="0" shadow="0">
      <root>
        <mxCell id="0" />
        <mxCell id="1" parent="0" />
        <mxCell id="uSEpRgkjYBtCiQlQ5F4b-1" value="Logic" style="rounded=0;whiteSpace=wrap;html=1;fillColor=#0050ef;fontColor=#ffffff;strokeColor=#001DBC;fontSize=15;fontStyle=1" vertex="1" parent="1">
          <mxGeometry x="40" y="400" width="80" height="80" as="geometry" />
        </mxCell>
        <mxCell id="uSEpRgkjYBtCiQlQ5F4b-2" value="Variable" style="rounded=0;whiteSpace=wrap;html=1;fillColor=#647687;fontColor=#ffffff;strokeColor=#314354;fontSize=15;fontStyle=1" vertex="1" parent="1">
          <mxGeometry x="160" y="400" width="80" height="80" as="geometry" />
        </mxCell>
        <mxCell id="uSEpRgkjYBtCiQlQ5F4b-3" value="Loop" style="rounded=0;whiteSpace=wrap;html=1;fillColor=#6a00ff;fontColor=#ffffff;strokeColor=#3700CC;fontSize=10;fontStyle=1;align=left;opacity=33;perimeterSpacing=1;strokeWidth=1;" vertex="1" parent="1">
          <mxGeometry x="40" y="520" width="80" height="80" as="geometry" />
        </mxCell>
        <mxCell id="uSEpRgkjYBtCiQlQ5F4b-4" value="Note" style="shape=hexagon;perimeter=hexagonPerimeter2;whiteSpace=wrap;html=1;fixedSize=1;fillColor=#e51400;fontColor=#ffffff;strokeColor=#B20000;fontStyle=1;fontSize=15;" vertex="1" parent="1">
          <mxGeometry x="280" y="400" width="80" height="80" as="geometry" />
        </mxCell>
        <mxCell id="uSEpRgkjYBtCiQlQ5F4b-5" value="Class" style="rounded=0;whiteSpace=wrap;html=1;fillColor=#e3c800;fontColor=#FFFFFF;strokeColor=#B09500;fontSize=10;fontStyle=1;align=left;opacity=33;perimeterSpacing=1;strokeWidth=1;" vertex="1" parent="1">
          <mxGeometry x="160" y="520" width="80" height="80" as="geometry" />
        </mxCell>
        <mxCell id="uSEpRgkjYBtCiQlQ5F4b-6" style="edgeStyle=orthogonalEdgeStyle;rounded=0;orthogonalLoop=1;jettySize=auto;html=1;exitX=1;exitY=0.5;exitDx=0;exitDy=0;entryX=0;entryY=0.5;entryDx=0;entryDy=0;" edge="1" parent="1" source="uSEpRgkjYBtCiQlQ5F4b-7" target="uSEpRgkjYBtCiQlQ5F4b-9">
          <mxGeometry relative="1" as="geometry" />
        </mxCell>
        <mxCell id="uSEpRgkjYBtCiQlQ5F4b-7" value="Input: Text file" style="rounded=0;whiteSpace=wrap;html=1;fillColor=#0050ef;fontColor=#ffffff;strokeColor=#001DBC;fontSize=15;fontStyle=1" vertex="1" parent="1">
          <mxGeometry x="360" y="200" width="80" height="80" as="geometry" />
        </mxCell>
        <mxCell id="uSEpRgkjYBtCiQlQ5F4b-8" value="" style="edgeStyle=orthogonalEdgeStyle;rounded=0;orthogonalLoop=1;jettySize=auto;html=1;" edge="1" parent="1" source="uSEpRgkjYBtCiQlQ5F4b-9">
          <mxGeometry relative="1" as="geometry">
            <mxPoint x="599" y="240" as="targetPoint" />
          </mxGeometry>
        </mxCell>
        <mxCell id="uSEpRgkjYBtCiQlQ5F4b-9" value="Read file" style="rounded=0;whiteSpace=wrap;html=1;fillColor=#0050ef;fontColor=#ffffff;strokeColor=#001DBC;fontSize=15;fontStyle=1" vertex="1" parent="1">
          <mxGeometry x="480" y="200" width="80" height="80" as="geometry" />
        </mxCell>
        <mxCell id="uSEpRgkjYBtCiQlQ5F4b-10" value="&amp;nbsp;For each line:" style="rounded=0;whiteSpace=wrap;html=1;fillColor=#6a00ff;fontColor=#ffffff;strokeColor=#3700CC;fontSize=10;fontStyle=1;align=left;opacity=33;perimeterSpacing=1;strokeWidth=1;" vertex="1" parent="1">
          <mxGeometry x="600" y="160" width="200" height="160" as="geometry" />
        </mxCell>
        <mxCell id="uSEpRgkjYBtCiQlQ5F4b-15" style="edgeStyle=orthogonalEdgeStyle;rounded=0;orthogonalLoop=1;jettySize=auto;html=1;exitX=0.5;exitY=1;exitDx=0;exitDy=0;entryX=0;entryY=0.5;entryDx=0;entryDy=0;" edge="1" parent="1" source="uSEpRgkjYBtCiQlQ5F4b-12" target="uSEpRgkjYBtCiQlQ5F4b-14">
          <mxGeometry relative="1" as="geometry" />
        </mxCell>
        <mxCell id="uSEpRgkjYBtCiQlQ5F4b-16" style="edgeStyle=orthogonalEdgeStyle;rounded=0;orthogonalLoop=1;jettySize=auto;html=1;exitX=1;exitY=0.5;exitDx=0;exitDy=0;entryX=0;entryY=0.5;entryDx=0;entryDy=0;" edge="1" parent="1" source="uSEpRgkjYBtCiQlQ5F4b-12" target="uSEpRgkjYBtCiQlQ5F4b-13">
          <mxGeometry relative="1" as="geometry" />
        </mxCell>
        <mxCell id="uSEpRgkjYBtCiQlQ5F4b-12" value="Parse out LR path and network" style="rounded=0;whiteSpace=wrap;html=1;fillColor=#0050ef;fontColor=#ffffff;strokeColor=#001DBC;fontSize=15;fontStyle=1" vertex="1" parent="1">
          <mxGeometry x="680" y="200" width="80" height="80" as="geometry" />
        </mxCell>
        <mxCell id="uSEpRgkjYBtCiQlQ5F4b-26" style="edgeStyle=orthogonalEdgeStyle;rounded=0;orthogonalLoop=1;jettySize=auto;html=1;exitX=1;exitY=0.5;exitDx=0;exitDy=0;entryX=0.25;entryY=0;entryDx=0;entryDy=0;" edge="1" parent="1" source="uSEpRgkjYBtCiQlQ5F4b-13" target="uSEpRgkjYBtCiQlQ5F4b-21">
          <mxGeometry relative="1" as="geometry" />
        </mxCell>
        <mxCell id="uSEpRgkjYBtCiQlQ5F4b-34" style="edgeStyle=orthogonalEdgeStyle;rounded=0;orthogonalLoop=1;jettySize=auto;html=1;exitX=0.5;exitY=1;exitDx=0;exitDy=0;entryX=0;entryY=0.25;entryDx=0;entryDy=0;" edge="1" parent="1" source="uSEpRgkjYBtCiQlQ5F4b-13" target="uSEpRgkjYBtCiQlQ5F4b-18">
          <mxGeometry relative="1" as="geometry" />
        </mxCell>
        <mxCell id="uSEpRgkjYBtCiQlQ5F4b-38" style="edgeStyle=orthogonalEdgeStyle;rounded=0;orthogonalLoop=1;jettySize=auto;html=1;exitX=0.5;exitY=0;exitDx=0;exitDy=0;entryX=0.75;entryY=0;entryDx=0;entryDy=0;" edge="1" parent="1" source="uSEpRgkjYBtCiQlQ5F4b-13" target="uSEpRgkjYBtCiQlQ5F4b-35">
          <mxGeometry relative="1" as="geometry">
            <Array as="points">
              <mxPoint x="880" y="-100" />
              <mxPoint x="1620" y="-100" />
            </Array>
          </mxGeometry>
        </mxCell>
        <mxCell id="uSEpRgkjYBtCiQlQ5F4b-13" value="Turn LR path into a boolean array" style="rounded=0;whiteSpace=wrap;html=1;fillColor=#647687;fontColor=#ffffff;strokeColor=#314354;fontSize=13;fontStyle=1" vertex="1" parent="1">
          <mxGeometry x="840" y="200" width="80" height="80" as="geometry" />
        </mxCell>
        <mxCell id="uSEpRgkjYBtCiQlQ5F4b-33" style="edgeStyle=orthogonalEdgeStyle;rounded=0;orthogonalLoop=1;jettySize=auto;html=1;exitX=0.5;exitY=0;exitDx=0;exitDy=0;entryX=0;entryY=0.75;entryDx=0;entryDy=0;" edge="1" parent="1" source="uSEpRgkjYBtCiQlQ5F4b-14" target="uSEpRgkjYBtCiQlQ5F4b-18">
          <mxGeometry relative="1" as="geometry" />
        </mxCell>
        <mxCell id="uSEpRgkjYBtCiQlQ5F4b-14" value="Turn network into a dictionary" style="rounded=0;whiteSpace=wrap;html=1;fillColor=#0050ef;fontColor=#ffffff;strokeColor=#001DBC;fontSize=15;fontStyle=1" vertex="1" parent="1">
          <mxGeometry x="840" y="360" width="80" height="80" as="geometry" />
        </mxCell>
        <mxCell id="uSEpRgkjYBtCiQlQ5F4b-17" value="&amp;nbsp;While current &lt;br&gt;&amp;nbsp;node isn&#39;t ZZZ:" style="rounded=0;whiteSpace=wrap;html=1;fillColor=#6a00ff;fontColor=#ffffff;strokeColor=#3700CC;fontSize=10;fontStyle=1;align=left;opacity=33;perimeterSpacing=1;strokeWidth=1;" vertex="1" parent="1">
          <mxGeometry x="1080" y="160" width="440" height="320" as="geometry" />
        </mxCell>
        <mxCell id="uSEpRgkjYBtCiQlQ5F4b-19" style="edgeStyle=orthogonalEdgeStyle;rounded=0;orthogonalLoop=1;jettySize=auto;html=1;exitX=1;exitY=0.5;exitDx=0;exitDy=0;entryX=0;entryY=0.5;entryDx=0;entryDy=0;" edge="1" parent="1" source="uSEpRgkjYBtCiQlQ5F4b-18" target="uSEpRgkjYBtCiQlQ5F4b-17">
          <mxGeometry relative="1" as="geometry" />
        </mxCell>
        <mxCell id="uSEpRgkjYBtCiQlQ5F4b-18" value="Start at the first node in the file" style="rounded=0;whiteSpace=wrap;html=1;fillColor=#0050ef;fontColor=#ffffff;strokeColor=#001DBC;fontSize=15;fontStyle=1" vertex="1" parent="1">
          <mxGeometry x="960" y="280" width="80" height="80" as="geometry" />
        </mxCell>
        <mxCell id="uSEpRgkjYBtCiQlQ5F4b-27" style="edgeStyle=orthogonalEdgeStyle;rounded=0;orthogonalLoop=1;jettySize=auto;html=1;exitX=1;exitY=0.75;exitDx=0;exitDy=0;entryX=0.75;entryY=0;entryDx=0;entryDy=0;" edge="1" parent="1" source="uSEpRgkjYBtCiQlQ5F4b-20" target="uSEpRgkjYBtCiQlQ5F4b-21">
          <mxGeometry relative="1" as="geometry" />
        </mxCell>
        <mxCell id="uSEpRgkjYBtCiQlQ5F4b-37" style="edgeStyle=orthogonalEdgeStyle;rounded=0;orthogonalLoop=1;jettySize=auto;html=1;exitX=1;exitY=0.25;exitDx=0;exitDy=0;entryX=0.25;entryY=0;entryDx=0;entryDy=0;" edge="1" parent="1" source="uSEpRgkjYBtCiQlQ5F4b-20" target="uSEpRgkjYBtCiQlQ5F4b-35">
          <mxGeometry relative="1" as="geometry" />
        </mxCell>
        <mxCell id="uSEpRgkjYBtCiQlQ5F4b-20" value="Create an int to track number of steps through LR path = 0" style="rounded=0;whiteSpace=wrap;html=1;fillColor=#647687;fontColor=#ffffff;strokeColor=#314354;fontSize=11;fontStyle=1" vertex="1" parent="1">
          <mxGeometry x="960" y="40" width="80" height="80" as="geometry" />
        </mxCell>
        <mxCell id="uSEpRgkjYBtCiQlQ5F4b-24" value="" style="edgeStyle=orthogonalEdgeStyle;rounded=0;orthogonalLoop=1;jettySize=auto;html=1;" edge="1" parent="1" source="uSEpRgkjYBtCiQlQ5F4b-21" target="uSEpRgkjYBtCiQlQ5F4b-23">
          <mxGeometry relative="1" as="geometry" />
        </mxCell>
        <mxCell id="uSEpRgkjYBtCiQlQ5F4b-21" value="Find the position in LR path" style="rounded=0;whiteSpace=wrap;html=1;fillColor=#0050ef;fontColor=#ffffff;strokeColor=#001DBC;fontSize=15;fontStyle=1" vertex="1" parent="1">
          <mxGeometry x="1161" y="280" width="80" height="80" as="geometry" />
        </mxCell>
        <mxCell id="uSEpRgkjYBtCiQlQ5F4b-29" value="" style="edgeStyle=orthogonalEdgeStyle;rounded=0;orthogonalLoop=1;jettySize=auto;html=1;" edge="1" parent="1" source="uSEpRgkjYBtCiQlQ5F4b-23" target="uSEpRgkjYBtCiQlQ5F4b-28">
          <mxGeometry relative="1" as="geometry" />
        </mxCell>
        <mxCell id="uSEpRgkjYBtCiQlQ5F4b-23" value="Move to node indicated by LR path" style="rounded=0;whiteSpace=wrap;html=1;fillColor=#0050ef;fontColor=#ffffff;strokeColor=#001DBC;fontSize=15;fontStyle=1" vertex="1" parent="1">
          <mxGeometry x="1280" y="280" width="80" height="80" as="geometry" />
        </mxCell>
        <mxCell id="uSEpRgkjYBtCiQlQ5F4b-36" style="edgeStyle=orthogonalEdgeStyle;rounded=0;orthogonalLoop=1;jettySize=auto;html=1;exitX=1;exitY=0.25;exitDx=0;exitDy=0;entryX=0.5;entryY=0;entryDx=0;entryDy=0;" edge="1" parent="1" source="uSEpRgkjYBtCiQlQ5F4b-25" target="uSEpRgkjYBtCiQlQ5F4b-35">
          <mxGeometry relative="1" as="geometry" />
        </mxCell>
        <mxCell id="uSEpRgkjYBtCiQlQ5F4b-25" value="Create an int to track number of times whole LR path has been walked = 0" style="rounded=0;whiteSpace=wrap;html=1;fillColor=#647687;fontColor=#ffffff;strokeColor=#314354;fontSize=10;fontStyle=1" vertex="1" parent="1">
          <mxGeometry x="960" y="-80" width="80" height="80" as="geometry" />
        </mxCell>
        <mxCell id="uSEpRgkjYBtCiQlQ5F4b-28" value="Increment steps" style="rounded=0;whiteSpace=wrap;html=1;fillColor=#0050ef;fontColor=#ffffff;strokeColor=#001DBC;fontSize=15;fontStyle=1" vertex="1" parent="1">
          <mxGeometry x="1400" y="280" width="80" height="80" as="geometry" />
        </mxCell>
        <mxCell id="uSEpRgkjYBtCiQlQ5F4b-31" style="edgeStyle=orthogonalEdgeStyle;rounded=0;orthogonalLoop=1;jettySize=auto;html=1;exitX=0.375;exitY=0;exitDx=0;exitDy=0;entryX=1;entryY=0.5;entryDx=0;entryDy=0;" edge="1" parent="1" source="uSEpRgkjYBtCiQlQ5F4b-30" target="uSEpRgkjYBtCiQlQ5F4b-20">
          <mxGeometry relative="1" as="geometry" />
        </mxCell>
        <mxCell id="uSEpRgkjYBtCiQlQ5F4b-32" style="edgeStyle=orthogonalEdgeStyle;rounded=0;orthogonalLoop=1;jettySize=auto;html=1;exitX=0.625;exitY=0;exitDx=0;exitDy=0;entryX=1;entryY=0.75;entryDx=0;entryDy=0;" edge="1" parent="1" source="uSEpRgkjYBtCiQlQ5F4b-30" target="uSEpRgkjYBtCiQlQ5F4b-25">
          <mxGeometry relative="1" as="geometry" />
        </mxCell>
        <mxCell id="uSEpRgkjYBtCiQlQ5F4b-30" value="If steps &amp;gt; size of path, reset steps to 0 and increment paths walked tracker" style="shape=hexagon;perimeter=hexagonPerimeter2;whiteSpace=wrap;html=1;fixedSize=1;fillColor=#e51400;fontColor=#ffffff;strokeColor=#B20000;fontStyle=1;fontSize=9;" vertex="1" parent="1">
          <mxGeometry x="1400" y="200" width="80" height="80" as="geometry" />
        </mxCell>
        <mxCell id="uSEpRgkjYBtCiQlQ5F4b-35" value="Return #paths walked * path length + path position" style="rounded=0;whiteSpace=wrap;html=1;fillColor=#0050ef;fontColor=#ffffff;strokeColor=#001DBC;fontSize=12;fontStyle=1" vertex="1" parent="1">
          <mxGeometry x="1560" y="280" width="80" height="80" as="geometry" />
        </mxCell>
      </root>
    </mxGraphModel>
  </diagram>
</mxfile>
